Coordinates
version=1
nRows=60
nColumns=12
inDegrees=yes

Units are S.I. units (second, meters, Newtons, ...)
Angles are in degrees

endheader
time	SC_y	SC_z	SC_x	AC_y	AC_z	AC_x	GH_y	GH_z	GH_yy	EL_x	PS_y
       0.0              -39.05        -0.1553          17.79          35.32         -18.98         -19.86         -99.74          6.342          171.1          107.1          82.59
   0.01503              -39.05        -0.1496          17.79          35.32         -18.98         -19.85         -99.71          6.346          171.1          107.1          82.58
   0.03006              -39.05        -0.1436          17.78          35.32         -18.97         -19.85         -99.68           6.35          171.0          107.1          82.57
   0.04509              -39.05        -0.1372          17.78          35.33         -18.97         -19.84         -99.64          6.355          171.0          107.1          82.56
   0.06012              -39.05        -0.1304          17.78          35.33         -18.97         -19.84          -99.6           6.36          170.9          107.1          82.55
   0.07515              -39.05        -0.1231          17.78          35.33         -18.97         -19.83         -99.56          6.366          170.8          107.1          82.54
   0.09018              -39.05        -0.1153          17.77          35.34         -18.96         -19.83         -99.51          6.372          170.8          107.1          82.52
    0.1052              -39.05         -0.107          17.77          35.34         -18.96         -19.82         -99.46          6.378          170.7          107.1          82.51
    0.1202              -39.05       -0.09812          17.77          35.34         -18.96         -19.81         -99.41          6.385          170.6          107.1           82.5
    0.1353              -39.05       -0.08858          17.77          35.35         -18.95         -19.81         -99.36          6.392          170.5          107.1          82.48
    0.1503              -39.05       -0.07834          17.76          35.35         -18.95          -19.8          -99.3          6.399          170.4          107.1          82.46
    0.1653              -39.05       -0.06731          17.76          35.36         -18.95         -19.79         -99.23          6.408          170.3          107.1          82.45
    0.1804              -39.04       -0.05542          17.75          35.36         -18.94         -19.78         -99.16          6.417          170.2          107.0          82.43
    0.1954              -39.04       -0.04258          17.75          35.37         -18.94         -19.77         -99.09          6.426          170.1          107.0           82.4
    0.2104              -39.04       -0.02869          17.74          35.37         -18.93         -19.76         -99.01          6.437          170.0          107.0          82.38
    0.2255              -39.04       -0.01362          17.74          35.38         -18.93         -19.75         -98.92          6.448          169.8          107.0          82.36
    0.2405              -39.04       0.002763          17.73          35.38         -18.92         -19.74         -98.82           6.46          169.7          107.0          82.33
    0.2555              -39.04         0.0206          17.73          35.39         -18.91         -19.73         -98.72          6.474          169.5          107.0           82.3
    0.2706              -39.04        0.04009          17.72           35.4         -18.91         -19.71         -98.61          6.488          169.4          107.0          82.27
    0.2856              -39.04        0.06142          17.71          35.41          -18.9          -19.7         -98.48          6.505          169.2          106.9          82.23
    0.3006              -39.04        0.08484          17.71          35.42         -18.89         -19.68         -98.35          6.522          169.0          106.9          82.19
    0.3156              -39.03         0.1106           17.7          35.43         -18.88         -19.66          -98.2          6.542          168.7          106.9          82.15
    0.3307              -39.03         0.1391          17.69          35.44         -18.87         -19.64         -98.03          6.563          168.5          106.9           82.1
    0.3457              -39.03         0.1706          17.68          35.45         -18.86         -19.61         -97.85          6.587          168.2          106.8          82.05
    0.3607              -39.03         0.2057          17.66          35.47         -18.84         -19.59         -97.64          6.613          167.9          106.8          81.99
    0.3758              -39.03         0.2448          17.65          35.48         -18.83         -19.56         -97.42          6.642          167.5          106.8          81.93
    0.3908              -39.02         0.2887          17.64           35.5         -18.81         -19.53         -97.16          6.675          167.1          106.7          81.85
    0.4058              -39.02          0.338          17.62          35.52         -18.79         -19.49         -96.87          6.712          166.7          106.7          81.77
    0.4209              -39.02         0.3937           17.6          35.54         -18.77         -19.45         -96.55          6.754          166.2          106.6          81.68
    0.4359              -39.01          0.457          17.58          35.57         -18.75          -19.4         -96.18          6.802          165.6          106.5          81.57
    0.4509              -39.01         0.5292          17.55           35.6         -18.72         -19.35         -95.76          6.856          165.0          106.5          81.45
     0.466               -39.0         0.6121          17.52          35.63         -18.69         -19.29         -95.28          6.919          164.2          106.4          81.32
     0.481               -39.0         0.7077          17.49          35.67         -18.66         -19.21         -94.72           6.99          163.4          106.3          81.16
     0.496              -38.99         0.8189          17.45          35.71         -18.61         -19.13         -94.07          7.074          162.4          106.2          80.97
     0.511              -38.98          0.949          17.41          35.77         -18.57         -19.03         -93.32          7.172          161.2          106.1          80.76
    0.5261              -38.97          1.102          17.35          35.83         -18.51         -18.92         -92.42          7.287          159.9          105.9           80.5
    0.5411              -38.96          1.285          17.29           35.9         -18.44         -18.78         -91.36          7.424          158.2          105.7           80.2
    0.5561              -38.95          1.503          17.22          35.99         -18.36         -18.62         -90.09          7.588          156.3          105.5          79.84
    0.5712              -38.93          1.767          17.13           36.1         -18.26         -18.42         -88.55          7.787          153.9          105.2           79.4
    0.5862              -38.91           2.09          17.01          36.23         -18.14         -18.18         -86.67           8.03          151.0          104.9          78.86
    0.6012              -38.89          2.489          16.88          36.39         -17.99         -17.89         -84.35          8.329          147.5          104.5           78.2
    0.6163              -38.85          2.985          16.71          36.59          -17.8         -17.52         -81.46          8.703          143.0          104.0          77.37
    0.6313              -38.82          3.611          16.49          36.85         -17.57         -17.05         -77.82          9.174          137.4          103.4          76.34
    0.6463              -38.77          4.407          16.22          37.17         -17.27         -16.46         -73.19          9.772          130.3          102.6          75.01
    0.6614               -38.7          5.425          15.87          37.58         -16.89          -15.7         -67.26          10.54          121.2          101.6          73.32
    0.6764              -38.62          6.732          15.42          38.11          -16.4         -14.73         -59.65          11.52          109.5          100.3          71.15
    0.6914              -38.52          8.402          14.84          38.79         -15.78         -13.48         -49.93          12.78          94.55          98.67          68.38
    0.7064              -38.39           10.5          14.12          39.64         -14.99         -11.92         -37.71          14.35          75.76          96.59          64.89
    0.7215              -38.23          13.06          13.24          40.67         -14.03         -10.01         -22.82          16.28          52.87          94.05          60.64
    0.7365              -38.04          16.02          12.21          41.88         -12.92         -7.802         -5.561          18.51          26.34          91.11          55.72
    0.7515              -37.84          19.23          11.11          43.18         -11.72          -5.41          13.13          20.92         -2.387          87.93          50.39
    0.7666              -37.64          22.44           10.0          44.48         -10.52         -3.018          31.82          23.33         -31.12          84.75          45.06
    0.7816              -37.45          25.41           8.98          45.68          -9.41         -0.809          49.08          25.56         -57.65          81.81          40.13
    0.7966              -37.29          27.97          8.099          46.72         -8.452          1.097          63.97          27.49         -80.54          79.27          35.88
    0.8117              -37.16          30.07          7.375          47.57         -7.667          2.661          76.19          29.06         -99.32          77.19           32.4
    0.8267              -37.06          31.74            6.8          48.24         -7.042          3.905          85.91          30.32         -114.3          75.54          29.62
    0.8417              -36.98          33.04           6.35          48.77         -6.553          4.878          93.51           31.3         -126.0          74.24          27.45
    0.8568              -36.91          34.06          5.999          49.19         -6.171          5.637          99.44          32.07         -135.1          73.23          25.76
    0.8718              -36.86          34.86          5.725          49.51         -5.874           6.23          104.1          32.67         -142.2          72.44          24.44
    0.8868              -36.83          35.48          5.509          49.76         -5.639          6.696          107.7          33.14         -147.8          71.82           23.4
